# xmcd
#
# Track frame offsets: 
#        150
#        24302
#        49513
#        81855
#        102847
#        125347
#        149616
#        175347
#        194216
#        210178
#        239007
#        261012
#        282276
#        307527
#        331927
#
# Disc length: 4752 seconds
#
# Revision: 0
# Processed by: cddbd v1.5.2PL0 Copyright (c) Steve Scherf et al.
# Submitted via: ExactAudioCopy v1.0b1
#
DISCID=cf128e0f
DTITLE=Various Artist - Tinh khuc Chuyen tuyen chon (Disk 1)
DYEAR=2010
DGENRE=Blues
TTITLE0=Nhu Quynh - Chuyen tinh hoa trang
TTITLE1=Truong Vu - Chuyen doi thong hai mo
TTITLE2=Thuy Hang - Chuyen tinh co lai do ben ha
TTITLE3=Manh Quynh - Chuyen ba mua mua
TTITLE4=Phi Nhung - Chuyen buon tinh yeu
TTITLE5=Che Linh - Chuyen chung minh
TTITLE6=Nhu Quynh - Chuyen hoa sim
TTITLE7=Nhu Quynh - Chuyen tinh hoa tigon
TTITLE8=Manh Quynh and Kha Tu - Chuyen tinh co
TTITLE9=Truong Vu - Chuyen tinh nguoi dan ao
TTITLE10=Phi Nhung - Chuyen tinh La Lan
TTITLE11=Truong Vu - Chuyen nang hang xom
TTITLE12=Phi Nhung - Chuyen mot nguoi di
TTITLE13=Son Tuyen - Chuyen co gai hai sim
TTITLE14=Phi Nhung - Chuyen lam dau
EXTD=
EXTT0=
EXTT1=
EXTT2=
EXTT3=
EXTT4=
EXTT5=
EXTT6=
EXTT7=
EXTT8=
EXTT9=
EXTT10=
EXTT11=
EXTT12=
EXTT13=
EXTT14=
PLAYORDER=
